<?xml version="1.0" encoding="UTF-8"?>
<!DOCTYPE svg
PUBLIC "-//W3C//DTD SVG 1.1//EN"
     "http://www.w3.org/Graphics/SVG/1.1/DTD/svg11.dtd">
<svg version="1.1" xmlns="http://www.w3.org/2000/svg" xmlns:xlink="http://www.w3.org/1999/xlink" width="3300" height="2200">
<!--glyph: "uni100000.medium", point size: 100.0, font version: "19.0d6e1", template writer version: "123"-->
<style>.SFSymbolsPreviewWireframe {fill:none;opacity:1.0;stroke:black;stroke-width:0.5}
</style>
<g id="Notes">
<rect height="2200" id="artboard" style="fill:white;opacity:1" width="3300" x="0" y="0"/>
<line style="fill:none;stroke:black;opacity:1;stroke-width:0.5;" x1="263" x2="3036" y1="292" y2="292"/>
<text style="stroke:none;fill:black;font-family:sans-serif;font-size:13;font-weight:bold;" transform="matrix(1 0 0 1 263 322)">Weight/Scale Variations</text>
<text style="stroke:none;fill:black;font-family:sans-serif;font-size:13;text-anchor:middle;" transform="matrix(1 0 0 1 559.711 322)">Ultralight</text>
<text style="stroke:none;fill:black;font-family:sans-serif;font-size:13;text-anchor:middle;" transform="matrix(1 0 0 1 856.422 322)">Thin</text>
<text style="stroke:none;fill:black;font-family:sans-serif;font-size:13;text-anchor:middle;" transform="matrix(1 0 0 1 1153.13 322)">Light</text>
<text style="stroke:none;fill:black;font-family:sans-serif;font-size:13;text-anchor:middle;" transform="matrix(1 0 0 1 1449.84 322)">Regular</text>
<text style="stroke:none;fill:black;font-family:sans-serif;font-size:13;text-anchor:middle;" transform="matrix(1 0 0 1 1746.56 322)">Medium</text>
<text style="stroke:none;fill:black;font-family:sans-serif;font-size:13;text-anchor:middle;" transform="matrix(1 0 0 1 2043.27 322)">Semibold</text>
<text style="stroke:none;fill:black;font-family:sans-serif;font-size:13;text-anchor:middle;" transform="matrix(1 0 0 1 2339.98 322)">Bold</text>
<text style="stroke:none;fill:black;font-family:sans-serif;font-size:13;text-anchor:middle;" transform="matrix(1 0 0 1 2636.69 322)">Heavy</text>
<text style="stroke:none;fill:black;font-family:sans-serif;font-size:13;text-anchor:middle;" transform="matrix(1 0 0 1 2933.4 322)">Black</text>
<line style="fill:none;stroke:black;opacity:1;stroke-width:0.5;" x1="263" x2="3036" y1="1903" y2="1903"/>
<g transform="matrix(0.2 0 0 0.2 263 1933)">
 <path d="m46.2402 4.15039c21.5332 0 39.4531-17.8711 39.4531-39.4043s-17.9688-39.4043-39.502-39.4043c-21.4844 0-39.3555 17.8711-39.3555 39.4043s17.9199 39.4043 39.4043 39.4043Zm0-7.42188c-17.7246 0-31.8848-14.209-31.8848-31.9824s14.1113-31.9824 31.8359-31.9824c17.7734 0 32.0312 14.209 32.0312 31.9824s-14.209 31.9824-31.9824 31.9824Zm-17.9688-31.9824c0 2.14844 1.51367 3.61328 3.75977 3.61328h10.498v10.5957c0 2.19727 1.46484 3.71094 3.61328 3.71094 2.24609 0 3.71094-1.51367 3.71094-3.71094v-10.5957h10.5957c2.19727 0 3.71094-1.46484 3.71094-3.61328 0-2.19727-1.51367-3.71094-3.71094-3.71094h-10.5957v-10.5469c0-2.24609-1.46484-3.75977-3.71094-3.75977-2.14844 0-3.61328 1.51367-3.61328 3.75977v10.5469h-10.498c-2.24609 0-3.75977 1.51367-3.75977 3.71094Z"/>
</g>
<g transform="matrix(0.2 0 0 0.2 281.506 1933)">
 <path d="m58.5449 14.5508c27.2461 0 49.8047-22.6074 49.8047-49.8047 0-27.2461-22.6074-49.8047-49.8535-49.8047-27.1973 0-49.7559 22.5586-49.7559 49.8047 0 27.1973 22.6074 49.8047 49.8047 49.8047Zm0-8.30078c-23.0469 0-41.4551-18.457-41.4551-41.5039s18.3594-41.5039 41.4062-41.5039 41.5527 18.457 41.5527 41.5039-18.457 41.5039-41.5039 41.5039Zm-22.6562-41.5039c0 2.39258 1.66016 4.00391 4.15039 4.00391h14.3555v14.4043c0 2.44141 1.66016 4.15039 4.05273 4.15039 2.44141 0 4.15039-1.66016 4.15039-4.15039v-14.4043h14.4043c2.44141 0 4.15039-1.61133 4.15039-4.00391 0-2.44141-1.70898-4.15039-4.15039-4.15039h-14.4043v-14.3555c0-2.49023-1.70898-4.19922-4.15039-4.19922-2.39258 0-4.05273 1.70898-4.05273 4.19922v14.3555h-14.3555c-2.49023 0-4.15039 1.70898-4.15039 4.15039Z"/>
</g>
<g transform="matrix(0.2 0 0 0.2 304.924 1933)">
 <path d="m74.8535 28.3203c34.8145 0 63.623-28.8086 63.623-63.5742 0-34.8145-28.8574-63.623-63.6719-63.623-34.7656 0-63.5254 28.8086-63.5254 63.623 0 34.7656 28.8086 63.5742 63.5742 63.5742Zm0-9.08203c-30.1758 0-54.4434-24.3164-54.4434-54.4922 0-30.2246 24.2188-54.4922 54.3945-54.4922 30.2246 0 54.541 24.2676 54.541 54.4922 0 30.1758-24.2676 54.4922-54.4922 54.4922Zm-28.8574-54.4922c0 2.58789 1.85547 4.39453 4.58984 4.39453h19.7266v19.7754c0 2.68555 1.85547 4.58984 4.44336 4.58984 2.68555 0 4.54102-1.85547 4.54102-4.58984v-19.7754h19.7754c2.68555 0 4.58984-1.80664 4.58984-4.39453 0-2.73438-1.85547-4.58984-4.58984-4.58984h-19.7754v-19.7266c0-2.73438-1.85547-4.63867-4.54102-4.63867-2.58789 0-4.44336 1.9043-4.44336 4.63867v19.7266h-19.7266c-2.73438 0-4.58984 1.85547-4.58984 4.58984Z"/>
</g>
<text style="stroke:none;fill:black;font-family:sans-serif;font-size:13;font-weight:bold;" transform="matrix(1 0 0 1 263 1953)">Design Variations</text>
<text style="stroke:none;fill:black;font-family:sans-serif;font-size:13;" transform="matrix(1 0 0 1 263 1971)">Symbols are supported in up to nine weights and three scales.</text>
<text style="stroke:none;fill:black;font-family:sans-serif;font-size:13;" transform="matrix(1 0 0 1 263 1989)">For optimal layout with text and other symbols, vertically align</text>
<text style="stroke:none;fill:black;font-family:sans-serif;font-size:13;" transform="matrix(1 0 0 1 263 2007)">symbols with the adjacent text.</text>
<line style="fill:none;stroke:#00AEEF;stroke-width:0.5;opacity:1.0;" x1="776" x2="776" y1="1919" y2="1933"/>
<g transform="matrix(0.2 0 0 0.2 776 1933)">
 <path d="m16.5527 0.78125c2.58789 0 3.85742-0.976562 4.78516-3.71094l6.29883-17.2363h28.8086l6.29883 17.2363c0.927734 2.73438 2.19727 3.71094 4.73633 3.71094 2.58789 0 4.24805-1.5625 4.24805-4.00391 0-0.830078-0.146484-1.61133-0.537109-2.63672l-22.9004-60.9863c-1.12305-2.97852-3.125-4.49219-6.25-4.49219-3.02734 0-5.07812 1.46484-6.15234 4.44336l-22.9004 61.084c-0.390625 1.02539-0.537109 1.80664-0.537109 2.63672 0 2.44141 1.5625 3.95508 4.10156 3.95508Zm13.4766-28.3691 11.8652-32.8613h0.244141l11.8652 32.8613Z"/>
</g>
<line style="fill:none;stroke:#00AEEF;stroke-width:0.5;opacity:1.0;" x1="792.836" x2="792.836" y1="1919" y2="1933"/>
<text style="stroke:none;fill:black;font-family:sans-serif;font-size:13;font-weight:bold;" transform="matrix(1 0 0 1 776 1953)">Margins</text>
<text style="stroke:none;fill:black;font-family:sans-serif;font-size:13;" transform="matrix(1 0 0 1 776 1971)">Leading and trailing margins on the left and right side of each symbol</text>
<text style="stroke:none;fill:black;font-family:sans-serif;font-size:13;" transform="matrix(1 0 0 1 776 1989)">can be adjusted by modifying the x-location of the margin guidelines.</text>
<text style="stroke:none;fill:black;font-family:sans-serif;font-size:13;" transform="matrix(1 0 0 1 776 2007)">Modifications are automatically applied proportionally to all</text>
<text style="stroke:none;fill:black;font-family:sans-serif;font-size:13;" transform="matrix(1 0 0 1 776 2025)">scales and weights.</text>
<g transform="matrix(0.2 0 0 0.2 1289 1933)">
 <path d="m14.209 9.32617 8.49609 8.54492c4.29688 4.3457 9.22852 4.05273 13.8672-1.07422l53.4668-58.9355-4.83398-4.88281-53.0762 58.3984c-1.75781 2.00195-3.41797 2.49023-5.76172 0.146484l-5.85938-5.81055c-2.34375-2.29492-1.80664-4.00391 0.195312-5.81055l57.373-54.0039-4.88281-4.83398-57.959 54.4434c-4.93164 4.58984-5.32227 9.47266-1.02539 13.8184Zm32.0801-90.9668c-2.09961 2.05078-2.24609 4.93164-1.07422 6.88477 1.17188 1.80664 3.4668 2.97852 6.68945 2.14844 7.32422-1.70898 14.9414-2.00195 22.0703 2.68555l-2.92969 7.27539c-1.70898 4.15039-0.830078 7.08008 1.85547 9.81445l11.4746 11.5723c2.44141 2.44141 4.49219 2.53906 7.32422 2.05078l5.32227-0.976562 3.32031 3.36914-0.195312 2.7832c-0.195312 2.49023 0.439453 4.39453 2.88086 6.78711l3.80859 3.71094c2.39258 2.39258 5.46875 2.53906 7.8125 0.195312l14.5508-14.5996c2.34375-2.34375 2.24609-5.32227-0.146484-7.71484l-3.85742-3.80859c-2.39258-2.39258-4.24805-3.17383-6.64062-2.97852l-2.88086 0.244141-3.22266-3.17383 1.2207-5.61523c0.634766-2.83203-0.146484-5.0293-3.07617-7.95898l-10.9863-10.9375c-16.6992-16.6016-38.8672-16.2109-53.3203-1.75781Zm7.4707 1.85547c12.1582-8.88672 28.6133-7.37305 39.7461 3.75977l12.1582 12.0605c1.17188 1.17188 1.36719 2.09961 1.02539 3.80859l-1.61133 7.42188 7.51953 7.42188 4.93164-0.292969c1.26953-0.0488281 1.66016 0.0488281 2.63672 1.02539l2.88086 2.88086-12.207 12.207-2.88086-2.88086c-0.976562-0.976562-1.12305-1.36719-1.07422-2.68555l0.341797-4.88281-7.4707-7.42188-7.61719 1.26953c-1.61133 0.341797-2.34375 0.195312-3.56445-0.976562l-10.0098-10.0098c-1.26953-1.17188-1.41602-2.00195-0.634766-3.85742l4.39453-10.4492c-7.8125-7.27539-17.9688-10.4004-28.125-7.42188-0.78125 0.195312-1.07422-0.439453-0.439453-0.976562Z"/>
</g>
<text style="stroke:none;fill:black;font-family:sans-serif;font-size:13;font-weight:bold;" transform="matrix(1 0 0 1 1289 1953)">Exporting</text>
<text style="stroke:none;fill:black;font-family:sans-serif;font-size:13;" transform="matrix(1 0 0 1 1289 1971)">Symbols should be outlined when exporting to ensure the</text>
<text style="stroke:none;fill:black;font-family:sans-serif;font-size:13;" transform="matrix(1 0 0 1 1289 1989)">design is preserved when submitting to Xcode.</text>
<text id="template-version" style="stroke:none;fill:black;font-family:sans-serif;font-size:13;text-anchor:end;" transform="matrix(1 0 0 1 3036 1933)">Template v.5.0</text>
<text style="stroke:none;fill:black;font-family:sans-serif;font-size:13;text-anchor:end;" transform="matrix(1 0 0 1 3036 1951)">Requires Xcode 15 or greater</text>
<text id="descriptive-name" style="stroke:none;fill:black;font-family:sans-serif;font-size:13;text-anchor:end;" transform="matrix(1 0 0 1 3036 1969)">Generated from circle</text>
<text style="stroke:none;fill:black;font-family:sans-serif;font-size:13;text-anchor:end;" transform="matrix(1 0 0 1 3036 1987)">Typeset at 100.0 points</text>
<text style="stroke:none;fill:black;font-family:sans-serif;font-size:13;" transform="matrix(1 0 0 1 263 726)">Small</text>
<text style="stroke:none;fill:black;font-family:sans-serif;font-size:13;" transform="matrix(1 0 0 1 263 1156)">Medium</text>
<text style="stroke:none;fill:black;font-family:sans-serif;font-size:13;" transform="matrix(1 0 0 1 263 1586)">Large</text>
</g>
<g id="Guides">
<g id="H-reference" style="fill:#27AAE1;stroke:none;" transform="matrix(1 0 0 1 339 696)">
 <path d="M0.993654 0L3.63775 0L29.3281-67.1323L30.0303-67.1323L30.0303-70.459L28.1226-70.459ZM11.6885-24.4799L46.9815-24.4799L46.2315-26.7285L12.4385-26.7285ZM55.1196 0L57.7637 0L30.6382-70.459L29.4326-70.459L29.4326-67.1323Z"/>
</g>
<line id="Baseline-S" style="fill:none;stroke:#27AAE1;opacity:1;stroke-width:0.5;" x1="263" x2="3036" y1="696" y2="696"/>
<line id="Capline-S" style="fill:none;stroke:#27AAE1;opacity:1;stroke-width:0.5;" x1="263" x2="3036" y1="625.541" y2="625.541"/>
<g id="H-reference" style="fill:#27AAE1;stroke:none;" transform="matrix(1 0 0 1 339 1126)">
 <path d="M0.993654 0L3.63775 0L29.3281-67.1323L30.0303-67.1323L30.0303-70.459L28.1226-70.459ZM11.6885-24.4799L46.9815-24.4799L46.2315-26.7285L12.4385-26.7285ZM55.1196 0L57.7637 0L30.6382-70.459L29.4326-70.459L29.4326-67.1323Z"/>
</g>
<line id="Baseline-M" style="fill:none;stroke:#27AAE1;opacity:1;stroke-width:0.5;" x1="263" x2="3036" y1="1126" y2="1126"/>
<line id="Capline-M" style="fill:none;stroke:#27AAE1;opacity:1;stroke-width:0.5;" x1="263" x2="3036" y1="1055.54" y2="1055.54"/>
<g id="H-reference" style="fill:#27AAE1;stroke:none;" transform="matrix(1 0 0 1 339 1556)">
 <path d="M0.993654 0L3.63775 0L29.3281-67.1323L30.0303-67.1323L30.0303-70.459L28.1226-70.459ZM11.6885-24.4799L46.9815-24.4799L46.2315-26.7285L12.4385-26.7285ZM55.1196 0L57.7637 0L30.6382-70.459L29.4326-70.459L29.4326-67.1323Z"/>
</g>
<line id="Baseline-L" style="fill:none;stroke:#27AAE1;opacity:1;stroke-width:0.5;" x1="263" x2="3036" y1="1556" y2="1556"/>
<line id="Capline-L" style="fill:none;stroke:#27AAE1;opacity:1;stroke-width:0.5;" x1="263" x2="3036" y1="1485.54" y2="1485.54"/>
<line id="left-margin-Ultralight-S" style="fill:none;stroke:#00AEEF;stroke-width:0.5;opacity:1.0;" x1="515.649" x2="515.649" y1="600.785" y2="720.121"/>
<line id="right-margin-Ultralight-S" style="fill:none;stroke:#00AEEF;stroke-width:0.5;opacity:1.0;" x1="603.773" x2="603.773" y1="600.785" y2="720.121"/>
<line id="left-margin-Regular-S" style="fill:none;stroke:#00AEEF;stroke-width:0.5;opacity:1.0;" x1="1403.58" x2="1403.58" y1="600.785" y2="720.121"/>
<line id="right-margin-Regular-S" style="fill:none;stroke:#00AEEF;stroke-width:0.5;opacity:1.0;" x1="1496.11" x2="1496.11" y1="600.785" y2="720.121"/>
<line id="left-margin-Black-S" style="fill:none;stroke:#00AEEF;stroke-width:0.5;opacity:1.0;" x1="2884.57" x2="2884.57" y1="600.785" y2="720.121"/>
<line id="right-margin-Black-S" style="fill:none;stroke:#00AEEF;stroke-width:0.5;opacity:1.0;" x1="2982.23" x2="2982.23" y1="600.785" y2="720.121"/>
</g>
<g id="Symbols">
<g id="Black-S" transform="matrix(1 0 0 1 2884.57 696) translate(3 -81.25)">
<g clip-path="url(#clip0_1_72)">
<path d="M4.6 29.1333H35.2667C37.6928 29.1333 40.0644 28.4139 42.0817 27.066C44.0989 25.7182 45.6712 23.8024 46.5996 21.5609C47.528 19.3195 47.7709 16.8531 47.2976 14.4736C46.8243 12.0941 45.656 9.90836 43.9405 8.19284C42.225 6.47731 40.0393 5.30902 37.6598 4.83571C35.2803 4.3624 32.8139 4.60532 30.5724 5.53376C28.331 6.46219 26.4152 8.03444 25.0673 10.0517C23.7194 12.0689 23 14.4406 23 16.8667C23 17.68 23.3231 18.46 23.8982 19.0351C24.4733 19.6103 25.2533 19.9333 26.0667 19.9333C26.88 19.9333 27.66 19.6103 28.2351 19.0351C28.8102 18.46 29.1333 17.68 29.1333 16.8667C29.1333 15.6536 29.493 14.4678 30.167 13.4592C30.8409 12.4506 31.7988 11.6644 32.9195 11.2002C34.0403 10.736 35.2735 10.6145 36.4632 10.8512C37.653 11.0879 38.7458 11.672 39.6036 12.5298C40.4614 13.3875 41.0455 14.4804 41.2822 15.6701C41.5188 16.8599 41.3973 18.0931 40.9331 19.2138C40.4689 20.3345 39.6828 21.2924 38.6742 21.9664C37.6655 22.6403 36.4797 23 35.2667 23H4.6C3.78667 23 3.00665 23.3231 2.43154 23.8982C1.85643 24.4733 1.53333 25.2533 1.53333 26.0667C1.53333 26.88 1.85643 27.66 2.43154 28.2351C3.00665 28.8102 3.78667 29.1333 4.6 29.1333Z" fill="black"/>
<path d="M4.6 38.3333H59.8C62.2261 38.3333 64.5977 37.6139 66.615 36.266C68.6322 34.9182 70.2045 33.0024 71.1329 30.7609C72.0614 28.5195 72.3043 26.0531 71.831 23.6736C71.3577 21.2941 70.1894 19.1084 68.4738 17.3928C66.7583 15.6773 64.5726 14.509 62.1931 14.0357C59.8136 13.5624 57.3472 13.8053 55.1058 14.7338C52.8643 15.6622 50.9485 17.2344 49.6006 19.2517C48.2528 21.2689 47.5333 23.6406 47.5333 26.0667C47.5333 26.88 47.8564 27.66 48.4315 28.2351C49.0067 28.8102 49.7867 29.1333 50.6 29.1333C51.4133 29.1333 52.1934 28.8102 52.7685 28.2351C53.3436 27.66 53.6667 26.88 53.6667 26.0667C53.6667 24.8536 54.0264 23.6678 54.7003 22.6592C55.3743 21.6506 56.3322 20.8644 57.4529 20.4002C58.5736 19.936 59.8068 19.8145 60.9966 20.0512C62.1863 20.2878 63.2792 20.872 64.1369 21.7298C64.9947 22.5875 65.5788 23.6804 65.8155 24.8701C66.0521 26.0599 65.9307 27.2931 65.4665 28.4138C65.0022 29.5345 64.2161 30.4924 63.2075 31.1664C62.1989 31.8403 61.0131 32.2 59.8 32.2H4.6C3.78667 32.2 3.00665 32.5231 2.43154 33.0982C1.85643 33.6733 1.53333 34.4533 1.53333 35.2667C1.53333 36.08 1.85643 36.86 2.43154 37.4351C3.00665 38.0102 3.78667 38.3333 4.6 38.3333Z" fill="black"/>
<path d="M50.6 41.4H4.6C3.78667 41.4 3.00665 41.7231 2.43154 42.2982C1.85643 42.8733 1.53333 43.6533 1.53333 44.4667C1.53333 45.28 1.85643 46.06 2.43154 46.6351C3.00665 47.2102 3.78667 47.5333 4.6 47.5333H50.6C51.4133 47.5333 52.1934 47.2102 52.7685 46.6351C53.3436 46.06 53.6667 45.28 53.6667 44.4667C53.6667 43.6533 53.3436 42.8733 52.7685 42.2982C52.1934 41.7231 51.4133 41.4 50.6 41.4Z" fill="black"/>
<path d="M8.188 55.2L2.05467 64.4C1.67235 65.0809 1.56419 65.882 1.75224 66.6399C1.94029 67.3978 2.4104 68.0555 3.06667 68.4787C3.56053 68.8246 4.15043 69.0069 4.75333 69C5.25844 68.9974 5.75507 68.87 6.19912 68.6293C6.64316 68.3885 7.02086 68.0418 7.29867 67.62L13.432 58.42C13.859 57.7246 13.9923 56.8881 13.8025 56.0944C13.6127 55.3007 13.1154 54.615 12.42 54.188C11.7246 53.761 10.8881 53.6277 10.0944 53.8175C9.30075 54.0073 8.615 54.5046 8.188 55.2Z" fill="black"/>
<path d="M44.988 55.2L38.8547 64.4C38.4723 65.0809 38.3642 65.882 38.5522 66.6399C38.7403 67.3978 39.2104 68.0555 39.8667 68.4787C40.3605 68.8246 40.9504 69.0069 41.5533 69C42.0584 68.9974 42.5551 68.87 42.9991 68.6293C43.4432 68.3885 43.8209 68.0418 44.0987 67.62L50.232 58.42C50.659 57.7246 50.7923 56.8881 50.6025 56.0944C50.4127 55.3007 49.9154 54.615 49.22 54.188C48.5246 53.761 47.6881 53.6277 46.8944 53.8175C46.1008 54.0073 45.415 54.5046 44.988 55.2Z" fill="black"/>
<path d="M26.588 52.1333L20.4547 61.3333C20.0723 62.0142 19.9642 62.8153 20.1522 63.5733C20.3403 64.3312 20.8104 64.9888 21.4667 65.412C21.9605 65.7579 22.5504 65.9402 23.1533 65.9333C23.6584 65.9307 24.1551 65.8034 24.5991 65.5626C25.0432 65.3219 25.4209 64.9752 25.6987 64.5533L31.832 55.3533C32.259 54.6579 32.3923 53.8214 32.2025 53.0277C32.0127 52.2341 31.5154 51.5483 30.82 51.1213C30.1246 50.6943 29.2881 50.5611 28.4944 50.7509C27.7008 50.9406 27.015 51.4379 26.588 52.1333Z" fill="black"/>
<path d="M63.388 52.1333L57.2547 61.3333C56.8723 62.0142 56.7642 62.8153 56.9522 63.5733C57.1403 64.3312 57.6104 64.9888 58.2667 65.412C58.7605 65.7579 59.3504 65.9402 59.9533 65.9333C60.4584 65.9307 60.9551 65.8034 61.3991 65.5626C61.8432 65.3219 62.2209 64.9752 62.4987 64.5533L68.632 55.3533C69.059 54.6579 69.1923 53.8214 69.0025 53.0277C68.8127 52.2341 68.3154 51.5483 67.62 51.1213C66.9246 50.6943 66.0881 50.5611 65.2944 50.7509C64.5008 50.9406 63.815 51.4379 63.388 52.1333Z" fill="black"/>
</g>
<defs>
<clipPath id="clip0_1_72">
<rect width="73.6" height="92" fill="white"/>
</clipPath>
</defs>
</g>
<g id="Regular-S" transform="matrix(1 0 0 1 1403.58 696) translate(0 -81.25)">
 <g clip-path="url(#clip0_1_62)">
<path d="M4.6 29.1333H35.2667C37.6928 29.1333 40.0644 28.4139 42.0817 27.066C44.0989 25.7182 45.6712 23.8024 46.5996 21.5609C47.528 19.3195 47.7709 16.8531 47.2976 14.4736C46.8243 12.0941 45.656 9.90836 43.9405 8.19284C42.225 6.47731 40.0393 5.30902 37.6598 4.83571C35.2803 4.3624 32.8139 4.60532 30.5724 5.53376C28.331 6.46219 26.4152 8.03444 25.0673 10.0517C23.7194 12.0689 23 14.4406 23 16.8667C23 17.68 23.3231 18.46 23.8982 19.0351C24.4733 19.6103 25.2533 19.9333 26.0667 19.9333C26.88 19.9333 27.66 19.6103 28.2351 19.0351C28.8102 18.46 29.1333 17.68 29.1333 16.8667C29.1333 15.6536 29.493 14.4678 30.167 13.4592C30.8409 12.4506 31.7988 11.6644 32.9195 11.2002C34.0403 10.736 35.2735 10.6145 36.4632 10.8512C37.653 11.0879 38.7458 11.672 39.6036 12.5298C40.4614 13.3875 41.0455 14.4804 41.2822 15.6701C41.5188 16.8599 41.3973 18.0931 40.9331 19.2138C40.4689 20.3345 39.6828 21.2924 38.6742 21.9664C37.6655 22.6403 36.4797 23 35.2667 23H4.6C3.78667 23 3.00665 23.3231 2.43154 23.8982C1.85643 24.4733 1.53333 25.2533 1.53333 26.0667C1.53333 26.88 1.85643 27.66 2.43154 28.2351C3.00665 28.8102 3.78667 29.1333 4.6 29.1333Z" fill="black"/>
<path d="M4.6 38.3333H59.8C62.2261 38.3333 64.5977 37.6139 66.615 36.266C68.6322 34.9182 70.2045 33.0024 71.1329 30.7609C72.0614 28.5195 72.3043 26.0531 71.831 23.6736C71.3577 21.2941 70.1894 19.1084 68.4738 17.3928C66.7583 15.6773 64.5726 14.509 62.1931 14.0357C59.8136 13.5624 57.3472 13.8053 55.1058 14.7338C52.8643 15.6622 50.9485 17.2344 49.6006 19.2517C48.2528 21.2689 47.5333 23.6406 47.5333 26.0667C47.5333 26.88 47.8564 27.66 48.4315 28.2351C49.0067 28.8102 49.7867 29.1333 50.6 29.1333C51.4133 29.1333 52.1934 28.8102 52.7685 28.2351C53.3436 27.66 53.6667 26.88 53.6667 26.0667C53.6667 24.8536 54.0264 23.6678 54.7003 22.6592C55.3743 21.6506 56.3322 20.8644 57.4529 20.4002C58.5736 19.936 59.8068 19.8145 60.9966 20.0512C62.1863 20.2878 63.2792 20.872 64.1369 21.7298C64.9947 22.5875 65.5788 23.6804 65.8155 24.8701C66.0521 26.0599 65.9307 27.2931 65.4665 28.4138C65.0022 29.5345 64.2161 30.4924 63.2075 31.1664C62.1989 31.8403 61.0131 32.2 59.8 32.2H4.6C3.78667 32.2 3.00665 32.5231 2.43154 33.0982C1.85643 33.6733 1.53333 34.4533 1.53333 35.2667C1.53333 36.08 1.85643 36.86 2.43154 37.4351C3.00665 38.0102 3.78667 38.3333 4.6 38.3333Z" fill="black"/>
<path d="M50.6 41.4H4.6C3.78667 41.4 3.00665 41.7231 2.43154 42.2982C1.85643 42.8733 1.53333 43.6533 1.53333 44.4667C1.53333 45.28 1.85643 46.06 2.43154 46.6351C3.00665 47.2102 3.78667 47.5333 4.6 47.5333H50.6C51.4133 47.5333 52.1934 47.2102 52.7685 46.6351C53.3436 46.06 53.6667 45.28 53.6667 44.4667C53.6667 43.6533 53.3436 42.8733 52.7685 42.2982C52.1934 41.7231 51.4133 41.4 50.6 41.4Z" fill="black"/>
<path d="M8.188 55.2L2.05467 64.4C1.67235 65.0809 1.56419 65.882 1.75224 66.6399C1.94029 67.3978 2.4104 68.0555 3.06667 68.4787C3.56053 68.8246 4.15043 69.0069 4.75333 69C5.25844 68.9974 5.75507 68.87 6.19912 68.6293C6.64316 68.3885 7.02086 68.0418 7.29867 67.62L13.432 58.42C13.859 57.7246 13.9923 56.8881 13.8025 56.0944C13.6127 55.3007 13.1154 54.615 12.42 54.188C11.7246 53.761 10.8881 53.6277 10.0944 53.8175C9.30075 54.0073 8.615 54.5046 8.188 55.2Z" fill="black"/>
<path d="M44.988 55.2L38.8547 64.4C38.4723 65.0809 38.3642 65.882 38.5522 66.6399C38.7403 67.3978 39.2104 68.0555 39.8667 68.4787C40.3605 68.8246 40.9504 69.0069 41.5533 69C42.0584 68.9974 42.5551 68.87 42.9991 68.6293C43.4432 68.3885 43.8209 68.0418 44.0987 67.62L50.232 58.42C50.659 57.7246 50.7923 56.8881 50.6025 56.0944C50.4127 55.3007 49.9154 54.615 49.22 54.188C48.5246 53.761 47.6881 53.6277 46.8944 53.8175C46.1008 54.0073 45.415 54.5046 44.988 55.2Z" fill="black"/>
<path d="M26.588 52.1333L20.4547 61.3333C20.0723 62.0142 19.9642 62.8153 20.1522 63.5733C20.3403 64.3312 20.8104 64.9888 21.4667 65.412C21.9605 65.7579 22.5504 65.9402 23.1533 65.9333C23.6584 65.9307 24.1551 65.8034 24.5991 65.5626C25.0432 65.3219 25.4209 64.9752 25.6987 64.5533L31.832 55.3533C32.259 54.6579 32.3923 53.8214 32.2025 53.0277C32.0127 52.2341 31.5154 51.5483 30.82 51.1213C30.1246 50.6943 29.2881 50.5611 28.4944 50.7509C27.7008 50.9406 27.015 51.4379 26.588 52.1333Z" fill="black"/>
<path d="M63.388 52.1333L57.2547 61.3333C56.8723 62.0142 56.7642 62.8153 56.9522 63.5733C57.1403 64.3312 57.6104 64.9888 58.2667 65.412C58.7605 65.7579 59.3504 65.9402 59.9533 65.9333C60.4584 65.9307 60.9551 65.8034 61.3991 65.5626C61.8432 65.3219 62.2209 64.9752 62.4987 64.5533L68.632 55.3533C69.059 54.6579 69.1923 53.8214 69.0025 53.0277C68.8127 52.2341 68.3154 51.5483 67.62 51.1213C66.9246 50.6943 66.0881 50.5611 65.2944 50.7509C64.5008 50.9406 63.815 51.4379 63.388 52.1333Z" fill="black"/>
</g>
<defs>
<clipPath id="clip0_1_62">
<rect width="73.6" height="92" fill="white"/>
</clipPath>
</defs>
</g>
<g id="Ultralight-S" transform="matrix(1 0 0 1 515.649 696) translate(-2 -81.25)">
 <g clip-path="url(#clip0_1_52)">
<path d="M4.6 29.1333H35.2667C37.6928 29.1333 40.0644 28.4139 42.0817 27.066C44.0989 25.7182 45.6712 23.8024 46.5996 21.5609C47.528 19.3195 47.7709 16.8531 47.2976 14.4736C46.8243 12.0941 45.656 9.90836 43.9405 8.19284C42.225 6.47731 40.0393 5.30902 37.6598 4.83571C35.2803 4.3624 32.8139 4.60532 30.5724 5.53376C28.331 6.46219 26.4152 8.03444 25.0673 10.0517C23.7194 12.0689 23 14.4406 23 16.8667C23 17.68 23.3231 18.46 23.8982 19.0351C24.4733 19.6103 25.2533 19.9333 26.0667 19.9333C26.88 19.9333 27.66 19.6103 28.2351 19.0351C28.8102 18.46 29.1333 17.68 29.1333 16.8667C29.1333 15.6536 29.493 14.4678 30.167 13.4592C30.8409 12.4506 31.7988 11.6644 32.9195 11.2002C34.0403 10.736 35.2735 10.6145 36.4632 10.8512C37.653 11.0879 38.7458 11.672 39.6036 12.5298C40.4614 13.3875 41.0455 14.4804 41.2822 15.6701C41.5188 16.8599 41.3973 18.0931 40.9331 19.2138C40.4689 20.3345 39.6828 21.2924 38.6742 21.9664C37.6655 22.6403 36.4797 23 35.2667 23H4.6C3.78667 23 3.00665 23.3231 2.43154 23.8982C1.85643 24.4733 1.53333 25.2533 1.53333 26.0667C1.53333 26.88 1.85643 27.66 2.43154 28.2351C3.00665 28.8102 3.78667 29.1333 4.6 29.1333Z" fill="black"/>
<path d="M4.6 38.3333H59.8C62.2261 38.3333 64.5977 37.6139 66.615 36.266C68.6322 34.9182 70.2045 33.0024 71.1329 30.7609C72.0614 28.5195 72.3043 26.0531 71.831 23.6736C71.3577 21.2941 70.1894 19.1084 68.4738 17.3928C66.7583 15.6773 64.5726 14.509 62.1931 14.0357C59.8136 13.5624 57.3472 13.8053 55.1058 14.7338C52.8643 15.6622 50.9485 17.2344 49.6006 19.2517C48.2528 21.2689 47.5333 23.6406 47.5333 26.0667C47.5333 26.88 47.8564 27.66 48.4315 28.2351C49.0067 28.8102 49.7867 29.1333 50.6 29.1333C51.4133 29.1333 52.1934 28.8102 52.7685 28.2351C53.3436 27.66 53.6667 26.88 53.6667 26.0667C53.6667 24.8536 54.0264 23.6678 54.7003 22.6592C55.3743 21.6506 56.3322 20.8644 57.4529 20.4002C58.5736 19.936 59.8068 19.8145 60.9966 20.0512C62.1863 20.2878 63.2792 20.872 64.1369 21.7298C64.9947 22.5875 65.5788 23.6804 65.8155 24.8701C66.0521 26.0599 65.9307 27.2931 65.4665 28.4138C65.0022 29.5345 64.2161 30.4924 63.2075 31.1664C62.1989 31.8403 61.0131 32.2 59.8 32.2H4.6C3.78667 32.2 3.00665 32.5231 2.43154 33.0982C1.85643 33.6733 1.53333 34.4533 1.53333 35.2667C1.53333 36.08 1.85643 36.86 2.43154 37.4351C3.00665 38.0102 3.78667 38.3333 4.6 38.3333Z" fill="black"/>
<path d="M50.6 41.4H4.6C3.78667 41.4 3.00665 41.7231 2.43154 42.2982C1.85643 42.8733 1.53333 43.6533 1.53333 44.4667C1.53333 45.28 1.85643 46.06 2.43154 46.6351C3.00665 47.2102 3.78667 47.5333 4.6 47.5333H50.6C51.4133 47.5333 52.1934 47.2102 52.7685 46.6351C53.3436 46.06 53.6667 45.28 53.6667 44.4667C53.6667 43.6533 53.3436 42.8733 52.7685 42.2982C52.1934 41.7231 51.4133 41.4 50.6 41.4Z" fill="black"/>
<path d="M8.188 55.2L2.05467 64.4C1.67235 65.0809 1.56419 65.882 1.75224 66.6399C1.94029 67.3978 2.4104 68.0555 3.06667 68.4787C3.56053 68.8246 4.15043 69.0069 4.75333 69C5.25844 68.9974 5.75507 68.87 6.19912 68.6293C6.64316 68.3885 7.02086 68.0418 7.29867 67.62L13.432 58.42C13.859 57.7246 13.9923 56.8881 13.8025 56.0944C13.6127 55.3007 13.1154 54.615 12.42 54.188C11.7246 53.761 10.8881 53.6277 10.0944 53.8175C9.30075 54.0073 8.615 54.5046 8.188 55.2Z" fill="black"/>
<path d="M44.988 55.2L38.8547 64.4C38.4723 65.0809 38.3642 65.882 38.5522 66.6399C38.7403 67.3978 39.2104 68.0555 39.8667 68.4787C40.3605 68.8246 40.9504 69.0069 41.5533 69C42.0584 68.9974 42.5551 68.87 42.9991 68.6293C43.4432 68.3885 43.8209 68.0418 44.0987 67.62L50.232 58.42C50.659 57.7246 50.7923 56.8881 50.6025 56.0944C50.4127 55.3007 49.9154 54.615 49.22 54.188C48.5246 53.761 47.6881 53.6277 46.8944 53.8175C46.1008 54.0073 45.415 54.5046 44.988 55.2Z" fill="black"/>
<path d="M26.588 52.1333L20.4547 61.3333C20.0723 62.0142 19.9642 62.8153 20.1522 63.5733C20.3403 64.3312 20.8104 64.9888 21.4667 65.412C21.9605 65.7579 22.5504 65.9402 23.1533 65.9333C23.6584 65.9307 24.1551 65.8034 24.5991 65.5626C25.0432 65.3219 25.4209 64.9752 25.6987 64.5533L31.832 55.3533C32.259 54.6579 32.3923 53.8214 32.2025 53.0277C32.0127 52.2341 31.5154 51.5483 30.82 51.1213C30.1246 50.6943 29.2881 50.5611 28.4944 50.7509C27.7008 50.9406 27.015 51.4379 26.588 52.1333Z" fill="black"/>
<path d="M63.388 52.1333L57.2547 61.3333C56.8723 62.0142 56.7642 62.8153 56.9522 63.5733C57.1403 64.3312 57.6104 64.9888 58.2667 65.412C58.7605 65.7579 59.3504 65.9402 59.9533 65.9333C60.4584 65.9307 60.9551 65.8034 61.3991 65.5626C61.8432 65.3219 62.2209 64.9752 62.4987 64.5533L68.632 55.3533C69.059 54.6579 69.1923 53.8214 69.0025 53.0277C68.8127 52.2341 68.3154 51.5483 67.62 51.1213C66.9246 50.6943 66.0881 50.5611 65.2944 50.7509C64.5008 50.9406 63.815 51.4379 63.388 52.1333Z" fill="black"/>
</g>
<defs>
<clipPath id="clip0_1_52">
<rect width="73.6" height="92" fill="white"/>
</clipPath>
</defs>
</g>
</g>
</svg>